<mxfile host="app.diagrams.net" modified="2021-06-24T22:10:53.889Z" agent="5.0 (Windows NT 10.0; Win64; x64) AppleWebKit/537.36 (KHTML, like Gecko) Chrome/91.0.4472.114 Safari/537.36" etag="-tpCHEfXap4ybHj_d5E0" version="14.8.1" type="github">
  <diagram id="HRwxKMOmei1tCmbo3GpK" name="Page-1">
    <mxGraphModel dx="1182" dy="732" grid="1" gridSize="10" guides="1" tooltips="1" connect="1" arrows="1" fold="1" page="1" pageScale="1" pageWidth="850" pageHeight="1100" math="0" shadow="0">
      <root>
        <mxCell id="0" />
        <mxCell id="1" parent="0" />
        <mxCell id="KTmF618l_aGk8gaSjo1K-1" value="Location_Table" style="shape=table;html=1;whiteSpace=wrap;startSize=30;container=1;collapsible=0;childLayout=tableLayout;fontStyle=1;align=center;" parent="1" vertex="1">
          <mxGeometry x="75" y="40" width="155" height="230" as="geometry" />
        </mxCell>
        <mxCell id="KTmF618l_aGk8gaSjo1K-2" value="" style="shape=partialRectangle;html=1;whiteSpace=wrap;collapsible=0;dropTarget=0;pointerEvents=0;fillColor=none;top=0;left=0;bottom=0;right=0;points=[[0,0.5],[1,0.5]];portConstraint=eastwest;" parent="KTmF618l_aGk8gaSjo1K-1" vertex="1">
          <mxGeometry y="30" width="155" height="40" as="geometry" />
        </mxCell>
        <mxCell id="KTmF618l_aGk8gaSjo1K-3" value="PK" style="shape=partialRectangle;html=1;whiteSpace=wrap;connectable=0;fillColor=none;top=0;left=0;bottom=0;right=0;overflow=hidden;" parent="KTmF618l_aGk8gaSjo1K-2" vertex="1">
          <mxGeometry width="60" height="40" as="geometry" />
        </mxCell>
        <mxCell id="KTmF618l_aGk8gaSjo1K-4" value="LocationName" style="shape=partialRectangle;html=1;whiteSpace=wrap;connectable=0;fillColor=none;top=0;left=0;bottom=0;right=0;overflow=hidden;" parent="KTmF618l_aGk8gaSjo1K-2" vertex="1">
          <mxGeometry x="60" width="95" height="40" as="geometry" />
        </mxCell>
        <mxCell id="KTmF618l_aGk8gaSjo1K-6" value="" style="shape=partialRectangle;html=1;whiteSpace=wrap;collapsible=0;dropTarget=0;pointerEvents=0;fillColor=none;top=0;left=0;bottom=0;right=0;points=[[0,0.5],[1,0.5]];portConstraint=eastwest;" parent="KTmF618l_aGk8gaSjo1K-1" vertex="1">
          <mxGeometry y="70" width="155" height="40" as="geometry" />
        </mxCell>
        <mxCell id="KTmF618l_aGk8gaSjo1K-7" value="REQ" style="shape=partialRectangle;html=1;whiteSpace=wrap;connectable=0;fillColor=none;top=0;left=0;bottom=0;right=0;overflow=hidden;" parent="KTmF618l_aGk8gaSjo1K-6" vertex="1">
          <mxGeometry width="60" height="40" as="geometry" />
        </mxCell>
        <mxCell id="KTmF618l_aGk8gaSjo1K-8" value="REQ" style="shape=partialRectangle;html=1;whiteSpace=wrap;connectable=0;fillColor=none;top=0;left=0;bottom=0;right=0;overflow=hidden;" parent="KTmF618l_aGk8gaSjo1K-6" vertex="1">
          <mxGeometry x="60" width="95" height="40" as="geometry" />
        </mxCell>
        <mxCell id="KTmF618l_aGk8gaSjo1K-10" value="" style="shape=partialRectangle;html=1;whiteSpace=wrap;collapsible=0;dropTarget=0;pointerEvents=0;fillColor=none;top=0;left=0;bottom=0;right=0;points=[[0,0.5],[1,0.5]];portConstraint=eastwest;" parent="KTmF618l_aGk8gaSjo1K-1" vertex="1">
          <mxGeometry y="110" width="155" height="40" as="geometry" />
        </mxCell>
        <mxCell id="KTmF618l_aGk8gaSjo1K-11" value="INT" style="shape=partialRectangle;html=1;whiteSpace=wrap;connectable=0;fillColor=none;top=0;left=0;bottom=0;right=0;overflow=hidden;" parent="KTmF618l_aGk8gaSjo1K-10" vertex="1">
          <mxGeometry width="60" height="40" as="geometry" />
        </mxCell>
        <mxCell id="KTmF618l_aGk8gaSjo1K-12" value="STRING" style="shape=partialRectangle;html=1;whiteSpace=wrap;connectable=0;fillColor=none;top=0;left=0;bottom=0;right=0;overflow=hidden;" parent="KTmF618l_aGk8gaSjo1K-10" vertex="1">
          <mxGeometry x="60" width="95" height="40" as="geometry" />
        </mxCell>
        <mxCell id="KTmF618l_aGk8gaSjo1K-30" style="shape=partialRectangle;html=1;whiteSpace=wrap;collapsible=0;dropTarget=0;pointerEvents=0;fillColor=none;top=0;left=0;bottom=0;right=0;points=[[0,0.5],[1,0.5]];portConstraint=eastwest;" parent="KTmF618l_aGk8gaSjo1K-1" vertex="1">
          <mxGeometry y="150" width="155" height="40" as="geometry" />
        </mxCell>
        <mxCell id="KTmF618l_aGk8gaSjo1K-31" value="UNIQUE" style="shape=partialRectangle;html=1;whiteSpace=wrap;connectable=0;fillColor=none;top=0;left=0;bottom=0;right=0;overflow=hidden;" parent="KTmF618l_aGk8gaSjo1K-30" vertex="1">
          <mxGeometry width="60" height="40" as="geometry" />
        </mxCell>
        <mxCell id="KTmF618l_aGk8gaSjo1K-32" value="UNIQUE" style="shape=partialRectangle;html=1;whiteSpace=wrap;connectable=0;fillColor=none;top=0;left=0;bottom=0;right=0;overflow=hidden;" parent="KTmF618l_aGk8gaSjo1K-30" vertex="1">
          <mxGeometry x="60" width="95" height="40" as="geometry" />
        </mxCell>
        <mxCell id="KTmF618l_aGk8gaSjo1K-97" style="shape=partialRectangle;html=1;whiteSpace=wrap;collapsible=0;dropTarget=0;pointerEvents=0;fillColor=none;top=0;left=0;bottom=0;right=0;points=[[0,0.5],[1,0.5]];portConstraint=eastwest;" parent="KTmF618l_aGk8gaSjo1K-1" vertex="1">
          <mxGeometry y="190" width="155" height="40" as="geometry" />
        </mxCell>
        <mxCell id="KTmF618l_aGk8gaSjo1K-98" value="1" style="shape=partialRectangle;html=1;whiteSpace=wrap;connectable=0;fillColor=none;top=0;left=0;bottom=0;right=0;overflow=hidden;" parent="KTmF618l_aGk8gaSjo1K-97" vertex="1">
          <mxGeometry width="60" height="40" as="geometry" />
        </mxCell>
        <mxCell id="KTmF618l_aGk8gaSjo1K-99" value="Rexburg" style="shape=partialRectangle;html=1;whiteSpace=wrap;connectable=0;fillColor=none;top=0;left=0;bottom=0;right=0;overflow=hidden;" parent="KTmF618l_aGk8gaSjo1K-97" vertex="1">
          <mxGeometry x="60" width="95" height="40" as="geometry" />
        </mxCell>
        <mxCell id="KTmF618l_aGk8gaSjo1K-14" value="Driver_Table" style="shape=table;html=1;whiteSpace=wrap;startSize=30;container=1;collapsible=0;childLayout=tableLayout;fontStyle=1;align=center;" parent="1" vertex="1">
          <mxGeometry x="280" y="40" width="1140" height="230" as="geometry" />
        </mxCell>
        <mxCell id="KTmF618l_aGk8gaSjo1K-15" value="" style="shape=partialRectangle;html=1;whiteSpace=wrap;collapsible=0;dropTarget=0;pointerEvents=0;fillColor=none;top=0;left=0;bottom=0;right=0;points=[[0,0.5],[1,0.5]];portConstraint=eastwest;" parent="KTmF618l_aGk8gaSjo1K-14" vertex="1">
          <mxGeometry y="30" width="1140" height="40" as="geometry" />
        </mxCell>
        <mxCell id="KTmF618l_aGk8gaSjo1K-16" value="PK" style="shape=partialRectangle;html=1;whiteSpace=wrap;connectable=0;fillColor=none;top=0;left=0;bottom=0;right=0;overflow=hidden;" parent="KTmF618l_aGk8gaSjo1K-15" vertex="1">
          <mxGeometry width="50" height="40" as="geometry" />
        </mxCell>
        <mxCell id="KTmF618l_aGk8gaSjo1K-17" value="FK - Location_Table" style="shape=partialRectangle;html=1;whiteSpace=wrap;connectable=0;fillColor=none;top=0;left=0;bottom=0;right=0;overflow=hidden;" parent="KTmF618l_aGk8gaSjo1K-15" vertex="1">
          <mxGeometry x="50" width="140" height="40" as="geometry" />
        </mxCell>
        <mxCell id="KTmF618l_aGk8gaSjo1K-18" value="DriverName" style="shape=partialRectangle;html=1;whiteSpace=wrap;connectable=0;fillColor=none;top=0;left=0;bottom=0;right=0;overflow=hidden;" parent="KTmF618l_aGk8gaSjo1K-15" vertex="1">
          <mxGeometry x="190" width="120" height="40" as="geometry" />
        </mxCell>
        <mxCell id="KTmF618l_aGk8gaSjo1K-27" value="PreferredDriverName" style="shape=partialRectangle;html=1;whiteSpace=wrap;connectable=0;fillColor=none;top=0;left=0;bottom=0;right=0;overflow=hidden;" parent="KTmF618l_aGk8gaSjo1K-15" vertex="1">
          <mxGeometry x="310" width="140" height="40" as="geometry" />
        </mxCell>
        <mxCell id="KTmF618l_aGk8gaSjo1K-33" value="Password" style="shape=partialRectangle;html=1;whiteSpace=wrap;connectable=0;fillColor=none;top=0;left=0;bottom=0;right=0;overflow=hidden;" parent="KTmF618l_aGk8gaSjo1K-15" vertex="1">
          <mxGeometry x="450" width="230" height="40" as="geometry" />
        </mxCell>
        <mxCell id="KTmF618l_aGk8gaSjo1K-121" value="LastLoginTime" style="shape=partialRectangle;html=1;whiteSpace=wrap;connectable=0;fillColor=none;top=0;left=0;bottom=0;right=0;overflow=hidden;" parent="KTmF618l_aGk8gaSjo1K-15" vertex="1">
          <mxGeometry x="680" width="230" height="40" as="geometry" />
        </mxCell>
        <mxCell id="KTmF618l_aGk8gaSjo1K-116" value="LastLogOutTime" style="shape=partialRectangle;html=1;whiteSpace=wrap;connectable=0;fillColor=none;top=0;left=0;bottom=0;right=0;overflow=hidden;" parent="KTmF618l_aGk8gaSjo1K-15" vertex="1">
          <mxGeometry x="910" width="230" height="40" as="geometry" />
        </mxCell>
        <mxCell id="KTmF618l_aGk8gaSjo1K-19" value="" style="shape=partialRectangle;html=1;whiteSpace=wrap;collapsible=0;dropTarget=0;pointerEvents=0;fillColor=none;top=0;left=0;bottom=0;right=0;points=[[0,0.5],[1,0.5]];portConstraint=eastwest;" parent="KTmF618l_aGk8gaSjo1K-14" vertex="1">
          <mxGeometry y="70" width="1140" height="40" as="geometry" />
        </mxCell>
        <mxCell id="KTmF618l_aGk8gaSjo1K-20" value="REQ" style="shape=partialRectangle;html=1;whiteSpace=wrap;connectable=0;fillColor=none;top=0;left=0;bottom=0;right=0;overflow=hidden;" parent="KTmF618l_aGk8gaSjo1K-19" vertex="1">
          <mxGeometry width="50" height="40" as="geometry" />
        </mxCell>
        <mxCell id="KTmF618l_aGk8gaSjo1K-21" value="&lt;span style=&quot;color: rgb(0 , 0 , 0) ; font-family: &amp;#34;helvetica&amp;#34; ; font-size: 12px ; font-style: normal ; font-weight: 400 ; letter-spacing: normal ; text-align: center ; text-indent: 0px ; text-transform: none ; word-spacing: 0px ; background-color: rgb(248 , 249 , 250) ; display: inline ; float: none&quot;&gt;REQ&lt;/span&gt;&lt;br&gt;" style="shape=partialRectangle;html=1;whiteSpace=wrap;connectable=0;fillColor=none;top=0;left=0;bottom=0;right=0;overflow=hidden;" parent="KTmF618l_aGk8gaSjo1K-19" vertex="1">
          <mxGeometry x="50" width="140" height="40" as="geometry" />
        </mxCell>
        <mxCell id="KTmF618l_aGk8gaSjo1K-22" value="&lt;span style=&quot;color: rgb(0 , 0 , 0) ; font-family: &amp;#34;helvetica&amp;#34; ; font-size: 12px ; font-style: normal ; font-weight: 400 ; letter-spacing: normal ; text-align: center ; text-indent: 0px ; text-transform: none ; word-spacing: 0px ; background-color: rgb(248 , 249 , 250) ; display: inline ; float: none&quot;&gt;REQ&lt;/span&gt;&lt;br&gt;" style="shape=partialRectangle;html=1;whiteSpace=wrap;connectable=0;fillColor=none;top=0;left=0;bottom=0;right=0;overflow=hidden;" parent="KTmF618l_aGk8gaSjo1K-19" vertex="1">
          <mxGeometry x="190" width="120" height="40" as="geometry" />
        </mxCell>
        <mxCell id="KTmF618l_aGk8gaSjo1K-28" value="OPT" style="shape=partialRectangle;html=1;whiteSpace=wrap;connectable=0;fillColor=none;top=0;left=0;bottom=0;right=0;overflow=hidden;" parent="KTmF618l_aGk8gaSjo1K-19" vertex="1">
          <mxGeometry x="310" width="140" height="40" as="geometry" />
        </mxCell>
        <mxCell id="KTmF618l_aGk8gaSjo1K-34" value="REQ" style="shape=partialRectangle;html=1;whiteSpace=wrap;connectable=0;fillColor=none;top=0;left=0;bottom=0;right=0;overflow=hidden;" parent="KTmF618l_aGk8gaSjo1K-19" vertex="1">
          <mxGeometry x="450" width="230" height="40" as="geometry" />
        </mxCell>
        <mxCell id="KTmF618l_aGk8gaSjo1K-122" value="OPT" style="shape=partialRectangle;html=1;whiteSpace=wrap;connectable=0;fillColor=none;top=0;left=0;bottom=0;right=0;overflow=hidden;" parent="KTmF618l_aGk8gaSjo1K-19" vertex="1">
          <mxGeometry x="680" width="230" height="40" as="geometry" />
        </mxCell>
        <mxCell id="KTmF618l_aGk8gaSjo1K-117" value="OPT" style="shape=partialRectangle;html=1;whiteSpace=wrap;connectable=0;fillColor=none;top=0;left=0;bottom=0;right=0;overflow=hidden;" parent="KTmF618l_aGk8gaSjo1K-19" vertex="1">
          <mxGeometry x="910" width="230" height="40" as="geometry" />
        </mxCell>
        <mxCell id="KTmF618l_aGk8gaSjo1K-23" value="" style="shape=partialRectangle;html=1;whiteSpace=wrap;collapsible=0;dropTarget=0;pointerEvents=0;fillColor=none;top=0;left=0;bottom=0;right=0;points=[[0,0.5],[1,0.5]];portConstraint=eastwest;" parent="KTmF618l_aGk8gaSjo1K-14" vertex="1">
          <mxGeometry y="110" width="1140" height="40" as="geometry" />
        </mxCell>
        <mxCell id="KTmF618l_aGk8gaSjo1K-24" value="INT" style="shape=partialRectangle;html=1;whiteSpace=wrap;connectable=0;fillColor=none;top=0;left=0;bottom=0;right=0;overflow=hidden;" parent="KTmF618l_aGk8gaSjo1K-23" vertex="1">
          <mxGeometry width="50" height="40" as="geometry" />
        </mxCell>
        <mxCell id="KTmF618l_aGk8gaSjo1K-25" value="INT" style="shape=partialRectangle;html=1;whiteSpace=wrap;connectable=0;fillColor=none;top=0;left=0;bottom=0;right=0;overflow=hidden;" parent="KTmF618l_aGk8gaSjo1K-23" vertex="1">
          <mxGeometry x="50" width="140" height="40" as="geometry" />
        </mxCell>
        <mxCell id="KTmF618l_aGk8gaSjo1K-26" value="STRING" style="shape=partialRectangle;html=1;whiteSpace=wrap;connectable=0;fillColor=none;top=0;left=0;bottom=0;right=0;overflow=hidden;" parent="KTmF618l_aGk8gaSjo1K-23" vertex="1">
          <mxGeometry x="190" width="120" height="40" as="geometry" />
        </mxCell>
        <mxCell id="KTmF618l_aGk8gaSjo1K-29" value="STRING" style="shape=partialRectangle;html=1;whiteSpace=wrap;connectable=0;fillColor=none;top=0;left=0;bottom=0;right=0;overflow=hidden;" parent="KTmF618l_aGk8gaSjo1K-23" vertex="1">
          <mxGeometry x="310" width="140" height="40" as="geometry" />
        </mxCell>
        <mxCell id="KTmF618l_aGk8gaSjo1K-35" value="&lt;span&gt;Generated By Server Formula&lt;/span&gt;" style="shape=partialRectangle;html=1;whiteSpace=wrap;connectable=0;fillColor=none;top=0;left=0;bottom=0;right=0;overflow=hidden;" parent="KTmF618l_aGk8gaSjo1K-23" vertex="1">
          <mxGeometry x="450" width="230" height="40" as="geometry" />
        </mxCell>
        <mxCell id="KTmF618l_aGk8gaSjo1K-123" value="DATE-TIME" style="shape=partialRectangle;html=1;whiteSpace=wrap;connectable=0;fillColor=none;top=0;left=0;bottom=0;right=0;overflow=hidden;" parent="KTmF618l_aGk8gaSjo1K-23" vertex="1">
          <mxGeometry x="680" width="230" height="40" as="geometry" />
        </mxCell>
        <mxCell id="KTmF618l_aGk8gaSjo1K-118" value="DATE-TIME" style="shape=partialRectangle;html=1;whiteSpace=wrap;connectable=0;fillColor=none;top=0;left=0;bottom=0;right=0;overflow=hidden;" parent="KTmF618l_aGk8gaSjo1K-23" vertex="1">
          <mxGeometry x="910" width="230" height="40" as="geometry" />
        </mxCell>
        <mxCell id="KTmF618l_aGk8gaSjo1K-36" style="shape=partialRectangle;html=1;whiteSpace=wrap;collapsible=0;dropTarget=0;pointerEvents=0;fillColor=none;top=0;left=0;bottom=0;right=0;points=[[0,0.5],[1,0.5]];portConstraint=eastwest;" parent="KTmF618l_aGk8gaSjo1K-14" vertex="1">
          <mxGeometry y="150" width="1140" height="40" as="geometry" />
        </mxCell>
        <mxCell id="KTmF618l_aGk8gaSjo1K-37" value="UNIQUE" style="shape=partialRectangle;html=1;whiteSpace=wrap;connectable=0;fillColor=none;top=0;left=0;bottom=0;right=0;overflow=hidden;" parent="KTmF618l_aGk8gaSjo1K-36" vertex="1">
          <mxGeometry width="50" height="40" as="geometry" />
        </mxCell>
        <mxCell id="KTmF618l_aGk8gaSjo1K-38" value="Duplicate Allowed" style="shape=partialRectangle;html=1;whiteSpace=wrap;connectable=0;fillColor=none;top=0;left=0;bottom=0;right=0;overflow=hidden;" parent="KTmF618l_aGk8gaSjo1K-36" vertex="1">
          <mxGeometry x="50" width="140" height="40" as="geometry" />
        </mxCell>
        <mxCell id="KTmF618l_aGk8gaSjo1K-39" value="Duplicate Allowed" style="shape=partialRectangle;html=1;whiteSpace=wrap;connectable=0;fillColor=none;top=0;left=0;bottom=0;right=0;overflow=hidden;" parent="KTmF618l_aGk8gaSjo1K-36" vertex="1">
          <mxGeometry x="190" width="120" height="40" as="geometry" />
        </mxCell>
        <mxCell id="KTmF618l_aGk8gaSjo1K-40" value="UNIQUE" style="shape=partialRectangle;html=1;whiteSpace=wrap;connectable=0;fillColor=none;top=0;left=0;bottom=0;right=0;overflow=hidden;" parent="KTmF618l_aGk8gaSjo1K-36" vertex="1">
          <mxGeometry x="310" width="140" height="40" as="geometry" />
        </mxCell>
        <mxCell id="KTmF618l_aGk8gaSjo1K-41" value="DuplicateAllowed" style="shape=partialRectangle;html=1;whiteSpace=wrap;connectable=0;fillColor=none;top=0;left=0;bottom=0;right=0;overflow=hidden;" parent="KTmF618l_aGk8gaSjo1K-36" vertex="1">
          <mxGeometry x="450" width="230" height="40" as="geometry" />
        </mxCell>
        <mxCell id="KTmF618l_aGk8gaSjo1K-124" value="DuplicateAllowed" style="shape=partialRectangle;html=1;whiteSpace=wrap;connectable=0;fillColor=none;top=0;left=0;bottom=0;right=0;overflow=hidden;" parent="KTmF618l_aGk8gaSjo1K-36" vertex="1">
          <mxGeometry x="680" width="230" height="40" as="geometry" />
        </mxCell>
        <mxCell id="KTmF618l_aGk8gaSjo1K-119" value="DuplicateAllowed" style="shape=partialRectangle;html=1;whiteSpace=wrap;connectable=0;fillColor=none;top=0;left=0;bottom=0;right=0;overflow=hidden;" parent="KTmF618l_aGk8gaSjo1K-36" vertex="1">
          <mxGeometry x="910" width="230" height="40" as="geometry" />
        </mxCell>
        <mxCell id="KTmF618l_aGk8gaSjo1K-100" style="shape=partialRectangle;html=1;whiteSpace=wrap;collapsible=0;dropTarget=0;pointerEvents=0;fillColor=none;top=0;left=0;bottom=0;right=0;points=[[0,0.5],[1,0.5]];portConstraint=eastwest;" parent="KTmF618l_aGk8gaSjo1K-14" vertex="1">
          <mxGeometry y="190" width="1140" height="40" as="geometry" />
        </mxCell>
        <mxCell id="KTmF618l_aGk8gaSjo1K-101" value="1" style="shape=partialRectangle;html=1;whiteSpace=wrap;connectable=0;fillColor=none;top=0;left=0;bottom=0;right=0;overflow=hidden;" parent="KTmF618l_aGk8gaSjo1K-100" vertex="1">
          <mxGeometry width="50" height="40" as="geometry" />
        </mxCell>
        <mxCell id="KTmF618l_aGk8gaSjo1K-102" value="1" style="shape=partialRectangle;html=1;whiteSpace=wrap;connectable=0;fillColor=none;top=0;left=0;bottom=0;right=0;overflow=hidden;" parent="KTmF618l_aGk8gaSjo1K-100" vertex="1">
          <mxGeometry x="50" width="140" height="40" as="geometry" />
        </mxCell>
        <mxCell id="KTmF618l_aGk8gaSjo1K-103" value="Daniel" style="shape=partialRectangle;html=1;whiteSpace=wrap;connectable=0;fillColor=none;top=0;left=0;bottom=0;right=0;overflow=hidden;" parent="KTmF618l_aGk8gaSjo1K-100" vertex="1">
          <mxGeometry x="190" width="120" height="40" as="geometry" />
        </mxCell>
        <mxCell id="KTmF618l_aGk8gaSjo1K-104" value="Scott" style="shape=partialRectangle;html=1;whiteSpace=wrap;connectable=0;fillColor=none;top=0;left=0;bottom=0;right=0;overflow=hidden;" parent="KTmF618l_aGk8gaSjo1K-100" vertex="1">
          <mxGeometry x="310" width="140" height="40" as="geometry" />
        </mxCell>
        <mxCell id="KTmF618l_aGk8gaSjo1K-105" value="ahs4564ddjh2fmbneuslaifn" style="shape=partialRectangle;html=1;whiteSpace=wrap;connectable=0;fillColor=none;top=0;left=0;bottom=0;right=0;overflow=hidden;" parent="KTmF618l_aGk8gaSjo1K-100" vertex="1">
          <mxGeometry x="450" width="230" height="40" as="geometry" />
        </mxCell>
        <mxCell id="KTmF618l_aGk8gaSjo1K-125" value="1/30/2021 14:11:23" style="shape=partialRectangle;html=1;whiteSpace=wrap;connectable=0;fillColor=none;top=0;left=0;bottom=0;right=0;overflow=hidden;" parent="KTmF618l_aGk8gaSjo1K-100" vertex="1">
          <mxGeometry x="680" width="230" height="40" as="geometry" />
        </mxCell>
        <mxCell id="KTmF618l_aGk8gaSjo1K-120" value="1/30/2021 19:15:24" style="shape=partialRectangle;html=1;whiteSpace=wrap;connectable=0;fillColor=none;top=0;left=0;bottom=0;right=0;overflow=hidden;" parent="KTmF618l_aGk8gaSjo1K-100" vertex="1">
          <mxGeometry x="910" width="230" height="40" as="geometry" />
        </mxCell>
        <mxCell id="KTmF618l_aGk8gaSjo1K-42" value="Driver_Time_Table" style="shape=table;html=1;whiteSpace=wrap;startSize=30;container=1;collapsible=0;childLayout=tableLayout;fontStyle=1;align=center;" parent="1" vertex="1">
          <mxGeometry x="75" y="370" width="605" height="230" as="geometry" />
        </mxCell>
        <mxCell id="KTmF618l_aGk8gaSjo1K-43" value="" style="shape=partialRectangle;html=1;whiteSpace=wrap;collapsible=0;dropTarget=0;pointerEvents=0;fillColor=none;top=0;left=0;bottom=0;right=0;points=[[0,0.5],[1,0.5]];portConstraint=eastwest;" parent="KTmF618l_aGk8gaSjo1K-42" vertex="1">
          <mxGeometry y="30" width="605" height="40" as="geometry" />
        </mxCell>
        <mxCell id="KTmF618l_aGk8gaSjo1K-44" value="PK" style="shape=partialRectangle;html=1;whiteSpace=wrap;connectable=0;fillColor=none;top=0;left=0;bottom=0;right=0;overflow=hidden;" parent="KTmF618l_aGk8gaSjo1K-43" vertex="1">
          <mxGeometry width="60" height="40" as="geometry" />
        </mxCell>
        <mxCell id="KTmF618l_aGk8gaSjo1K-58" value="FK - Driver_Table" style="shape=partialRectangle;html=1;whiteSpace=wrap;connectable=0;fillColor=none;top=0;left=0;bottom=0;right=0;overflow=hidden;" parent="KTmF618l_aGk8gaSjo1K-43" vertex="1">
          <mxGeometry x="60" width="155" height="40" as="geometry" />
        </mxCell>
        <mxCell id="KTmF618l_aGk8gaSjo1K-45" value="Date" style="shape=partialRectangle;html=1;whiteSpace=wrap;connectable=0;fillColor=none;top=0;left=0;bottom=0;right=0;overflow=hidden;" parent="KTmF618l_aGk8gaSjo1K-43" vertex="1">
          <mxGeometry x="215" width="140" height="40" as="geometry" />
        </mxCell>
        <mxCell id="KTmF618l_aGk8gaSjo1K-46" value="Time" style="shape=partialRectangle;html=1;whiteSpace=wrap;connectable=0;fillColor=none;top=0;left=0;bottom=0;right=0;overflow=hidden;" parent="KTmF618l_aGk8gaSjo1K-43" vertex="1">
          <mxGeometry x="355" width="130" height="40" as="geometry" />
        </mxCell>
        <mxCell id="KTmF618l_aGk8gaSjo1K-55" value="FK - Status_Table" style="shape=partialRectangle;html=1;whiteSpace=wrap;connectable=0;fillColor=none;top=0;left=0;bottom=0;right=0;overflow=hidden;" parent="KTmF618l_aGk8gaSjo1K-43" vertex="1">
          <mxGeometry x="485" width="120" height="40" as="geometry" />
        </mxCell>
        <mxCell id="KTmF618l_aGk8gaSjo1K-47" value="" style="shape=partialRectangle;html=1;whiteSpace=wrap;collapsible=0;dropTarget=0;pointerEvents=0;fillColor=none;top=0;left=0;bottom=0;right=0;points=[[0,0.5],[1,0.5]];portConstraint=eastwest;" parent="KTmF618l_aGk8gaSjo1K-42" vertex="1">
          <mxGeometry y="70" width="605" height="40" as="geometry" />
        </mxCell>
        <mxCell id="KTmF618l_aGk8gaSjo1K-48" value="REQ" style="shape=partialRectangle;html=1;whiteSpace=wrap;connectable=0;fillColor=none;top=0;left=0;bottom=0;right=0;overflow=hidden;" parent="KTmF618l_aGk8gaSjo1K-47" vertex="1">
          <mxGeometry width="60" height="40" as="geometry" />
        </mxCell>
        <mxCell id="KTmF618l_aGk8gaSjo1K-59" value="REQ" style="shape=partialRectangle;html=1;whiteSpace=wrap;connectable=0;fillColor=none;top=0;left=0;bottom=0;right=0;overflow=hidden;" parent="KTmF618l_aGk8gaSjo1K-47" vertex="1">
          <mxGeometry x="60" width="155" height="40" as="geometry" />
        </mxCell>
        <mxCell id="KTmF618l_aGk8gaSjo1K-49" value="REQ" style="shape=partialRectangle;html=1;whiteSpace=wrap;connectable=0;fillColor=none;top=0;left=0;bottom=0;right=0;overflow=hidden;" parent="KTmF618l_aGk8gaSjo1K-47" vertex="1">
          <mxGeometry x="215" width="140" height="40" as="geometry" />
        </mxCell>
        <mxCell id="KTmF618l_aGk8gaSjo1K-50" value="REQ" style="shape=partialRectangle;html=1;whiteSpace=wrap;connectable=0;fillColor=none;top=0;left=0;bottom=0;right=0;overflow=hidden;" parent="KTmF618l_aGk8gaSjo1K-47" vertex="1">
          <mxGeometry x="355" width="130" height="40" as="geometry" />
        </mxCell>
        <mxCell id="KTmF618l_aGk8gaSjo1K-56" value="REQ" style="shape=partialRectangle;html=1;whiteSpace=wrap;connectable=0;fillColor=none;top=0;left=0;bottom=0;right=0;overflow=hidden;" parent="KTmF618l_aGk8gaSjo1K-47" vertex="1">
          <mxGeometry x="485" width="120" height="40" as="geometry" />
        </mxCell>
        <mxCell id="KTmF618l_aGk8gaSjo1K-51" value="" style="shape=partialRectangle;html=1;whiteSpace=wrap;collapsible=0;dropTarget=0;pointerEvents=0;fillColor=none;top=0;left=0;bottom=0;right=0;points=[[0,0.5],[1,0.5]];portConstraint=eastwest;" parent="KTmF618l_aGk8gaSjo1K-42" vertex="1">
          <mxGeometry y="110" width="605" height="40" as="geometry" />
        </mxCell>
        <mxCell id="KTmF618l_aGk8gaSjo1K-52" value="INT" style="shape=partialRectangle;html=1;whiteSpace=wrap;connectable=0;fillColor=none;top=0;left=0;bottom=0;right=0;overflow=hidden;" parent="KTmF618l_aGk8gaSjo1K-51" vertex="1">
          <mxGeometry width="60" height="40" as="geometry" />
        </mxCell>
        <mxCell id="KTmF618l_aGk8gaSjo1K-60" value="INT" style="shape=partialRectangle;html=1;whiteSpace=wrap;connectable=0;fillColor=none;top=0;left=0;bottom=0;right=0;overflow=hidden;" parent="KTmF618l_aGk8gaSjo1K-51" vertex="1">
          <mxGeometry x="60" width="155" height="40" as="geometry" />
        </mxCell>
        <mxCell id="KTmF618l_aGk8gaSjo1K-53" value="DATE" style="shape=partialRectangle;html=1;whiteSpace=wrap;connectable=0;fillColor=none;top=0;left=0;bottom=0;right=0;overflow=hidden;" parent="KTmF618l_aGk8gaSjo1K-51" vertex="1">
          <mxGeometry x="215" width="140" height="40" as="geometry" />
        </mxCell>
        <mxCell id="KTmF618l_aGk8gaSjo1K-54" value="TIME" style="shape=partialRectangle;html=1;whiteSpace=wrap;connectable=0;fillColor=none;top=0;left=0;bottom=0;right=0;overflow=hidden;" parent="KTmF618l_aGk8gaSjo1K-51" vertex="1">
          <mxGeometry x="355" width="130" height="40" as="geometry" />
        </mxCell>
        <mxCell id="KTmF618l_aGk8gaSjo1K-57" value="INT" style="shape=partialRectangle;html=1;whiteSpace=wrap;connectable=0;fillColor=none;top=0;left=0;bottom=0;right=0;overflow=hidden;" parent="KTmF618l_aGk8gaSjo1K-51" vertex="1">
          <mxGeometry x="485" width="120" height="40" as="geometry" />
        </mxCell>
        <mxCell id="KTmF618l_aGk8gaSjo1K-74" style="shape=partialRectangle;html=1;whiteSpace=wrap;collapsible=0;dropTarget=0;pointerEvents=0;fillColor=none;top=0;left=0;bottom=0;right=0;points=[[0,0.5],[1,0.5]];portConstraint=eastwest;" parent="KTmF618l_aGk8gaSjo1K-42" vertex="1">
          <mxGeometry y="150" width="605" height="40" as="geometry" />
        </mxCell>
        <mxCell id="KTmF618l_aGk8gaSjo1K-75" value="UNIQUE" style="shape=partialRectangle;html=1;whiteSpace=wrap;connectable=0;fillColor=none;top=0;left=0;bottom=0;right=0;overflow=hidden;" parent="KTmF618l_aGk8gaSjo1K-74" vertex="1">
          <mxGeometry width="60" height="40" as="geometry" />
        </mxCell>
        <mxCell id="KTmF618l_aGk8gaSjo1K-76" value="Duplicate Allowed" style="shape=partialRectangle;html=1;whiteSpace=wrap;connectable=0;fillColor=none;top=0;left=0;bottom=0;right=0;overflow=hidden;" parent="KTmF618l_aGk8gaSjo1K-74" vertex="1">
          <mxGeometry x="60" width="155" height="40" as="geometry" />
        </mxCell>
        <mxCell id="KTmF618l_aGk8gaSjo1K-77" value="Duplicate Allowed" style="shape=partialRectangle;html=1;whiteSpace=wrap;connectable=0;fillColor=none;top=0;left=0;bottom=0;right=0;overflow=hidden;" parent="KTmF618l_aGk8gaSjo1K-74" vertex="1">
          <mxGeometry x="215" width="140" height="40" as="geometry" />
        </mxCell>
        <mxCell id="KTmF618l_aGk8gaSjo1K-78" value="Duplicate Allowed" style="shape=partialRectangle;html=1;whiteSpace=wrap;connectable=0;fillColor=none;top=0;left=0;bottom=0;right=0;overflow=hidden;" parent="KTmF618l_aGk8gaSjo1K-74" vertex="1">
          <mxGeometry x="355" width="130" height="40" as="geometry" />
        </mxCell>
        <mxCell id="KTmF618l_aGk8gaSjo1K-79" value="Duplicate Allowed" style="shape=partialRectangle;html=1;whiteSpace=wrap;connectable=0;fillColor=none;top=0;left=0;bottom=0;right=0;overflow=hidden;" parent="KTmF618l_aGk8gaSjo1K-74" vertex="1">
          <mxGeometry x="485" width="120" height="40" as="geometry" />
        </mxCell>
        <mxCell id="KTmF618l_aGk8gaSjo1K-106" style="shape=partialRectangle;html=1;whiteSpace=wrap;collapsible=0;dropTarget=0;pointerEvents=0;fillColor=none;top=0;left=0;bottom=0;right=0;points=[[0,0.5],[1,0.5]];portConstraint=eastwest;" parent="KTmF618l_aGk8gaSjo1K-42" vertex="1">
          <mxGeometry y="190" width="605" height="40" as="geometry" />
        </mxCell>
        <mxCell id="KTmF618l_aGk8gaSjo1K-107" value="1" style="shape=partialRectangle;html=1;whiteSpace=wrap;connectable=0;fillColor=none;top=0;left=0;bottom=0;right=0;overflow=hidden;" parent="KTmF618l_aGk8gaSjo1K-106" vertex="1">
          <mxGeometry width="60" height="40" as="geometry" />
        </mxCell>
        <mxCell id="KTmF618l_aGk8gaSjo1K-108" value="1" style="shape=partialRectangle;html=1;whiteSpace=wrap;connectable=0;fillColor=none;top=0;left=0;bottom=0;right=0;overflow=hidden;" parent="KTmF618l_aGk8gaSjo1K-106" vertex="1">
          <mxGeometry x="60" width="155" height="40" as="geometry" />
        </mxCell>
        <mxCell id="KTmF618l_aGk8gaSjo1K-109" value="2/2/2022" style="shape=partialRectangle;html=1;whiteSpace=wrap;connectable=0;fillColor=none;top=0;left=0;bottom=0;right=0;overflow=hidden;" parent="KTmF618l_aGk8gaSjo1K-106" vertex="1">
          <mxGeometry x="215" width="140" height="40" as="geometry" />
        </mxCell>
        <mxCell id="KTmF618l_aGk8gaSjo1K-110" value="19:11:45" style="shape=partialRectangle;html=1;whiteSpace=wrap;connectable=0;fillColor=none;top=0;left=0;bottom=0;right=0;overflow=hidden;" parent="KTmF618l_aGk8gaSjo1K-106" vertex="1">
          <mxGeometry x="355" width="130" height="40" as="geometry" />
        </mxCell>
        <mxCell id="KTmF618l_aGk8gaSjo1K-111" value="2" style="shape=partialRectangle;html=1;whiteSpace=wrap;connectable=0;fillColor=none;top=0;left=0;bottom=0;right=0;overflow=hidden;" parent="KTmF618l_aGk8gaSjo1K-106" vertex="1">
          <mxGeometry x="485" width="120" height="40" as="geometry" />
        </mxCell>
        <mxCell id="KTmF618l_aGk8gaSjo1K-61" value="Status_Table" style="shape=table;html=1;whiteSpace=wrap;startSize=30;container=1;collapsible=0;childLayout=tableLayout;fontStyle=1;align=center;" parent="1" vertex="1">
          <mxGeometry x="800" y="370" width="160" height="390" as="geometry" />
        </mxCell>
        <mxCell id="KTmF618l_aGk8gaSjo1K-62" value="" style="shape=partialRectangle;html=1;whiteSpace=wrap;collapsible=0;dropTarget=0;pointerEvents=0;fillColor=none;top=0;left=0;bottom=0;right=0;points=[[0,0.5],[1,0.5]];portConstraint=eastwest;" parent="KTmF618l_aGk8gaSjo1K-61" vertex="1">
          <mxGeometry y="30" width="160" height="40" as="geometry" />
        </mxCell>
        <mxCell id="KTmF618l_aGk8gaSjo1K-63" value="PK" style="shape=partialRectangle;html=1;whiteSpace=wrap;connectable=0;fillColor=none;top=0;left=0;bottom=0;right=0;overflow=hidden;" parent="KTmF618l_aGk8gaSjo1K-62" vertex="1">
          <mxGeometry width="60" height="40" as="geometry" />
        </mxCell>
        <mxCell id="KTmF618l_aGk8gaSjo1K-64" value="Status_Name" style="shape=partialRectangle;html=1;whiteSpace=wrap;connectable=0;fillColor=none;top=0;left=0;bottom=0;right=0;overflow=hidden;" parent="KTmF618l_aGk8gaSjo1K-62" vertex="1">
          <mxGeometry x="60" width="100" height="40" as="geometry" />
        </mxCell>
        <mxCell id="KTmF618l_aGk8gaSjo1K-66" value="" style="shape=partialRectangle;html=1;whiteSpace=wrap;collapsible=0;dropTarget=0;pointerEvents=0;fillColor=none;top=0;left=0;bottom=0;right=0;points=[[0,0.5],[1,0.5]];portConstraint=eastwest;" parent="KTmF618l_aGk8gaSjo1K-61" vertex="1">
          <mxGeometry y="70" width="160" height="40" as="geometry" />
        </mxCell>
        <mxCell id="KTmF618l_aGk8gaSjo1K-67" value="REQ" style="shape=partialRectangle;html=1;whiteSpace=wrap;connectable=0;fillColor=none;top=0;left=0;bottom=0;right=0;overflow=hidden;" parent="KTmF618l_aGk8gaSjo1K-66" vertex="1">
          <mxGeometry width="60" height="40" as="geometry" />
        </mxCell>
        <mxCell id="KTmF618l_aGk8gaSjo1K-68" value="REQ" style="shape=partialRectangle;html=1;whiteSpace=wrap;connectable=0;fillColor=none;top=0;left=0;bottom=0;right=0;overflow=hidden;" parent="KTmF618l_aGk8gaSjo1K-66" vertex="1">
          <mxGeometry x="60" width="100" height="40" as="geometry" />
        </mxCell>
        <mxCell id="KTmF618l_aGk8gaSjo1K-70" value="" style="shape=partialRectangle;html=1;whiteSpace=wrap;collapsible=0;dropTarget=0;pointerEvents=0;fillColor=none;top=0;left=0;bottom=0;right=0;points=[[0,0.5],[1,0.5]];portConstraint=eastwest;" parent="KTmF618l_aGk8gaSjo1K-61" vertex="1">
          <mxGeometry y="110" width="160" height="40" as="geometry" />
        </mxCell>
        <mxCell id="KTmF618l_aGk8gaSjo1K-71" value="INT" style="shape=partialRectangle;html=1;whiteSpace=wrap;connectable=0;fillColor=none;top=0;left=0;bottom=0;right=0;overflow=hidden;" parent="KTmF618l_aGk8gaSjo1K-70" vertex="1">
          <mxGeometry width="60" height="40" as="geometry" />
        </mxCell>
        <mxCell id="KTmF618l_aGk8gaSjo1K-72" value="STRING" style="shape=partialRectangle;html=1;whiteSpace=wrap;connectable=0;fillColor=none;top=0;left=0;bottom=0;right=0;overflow=hidden;" parent="KTmF618l_aGk8gaSjo1K-70" vertex="1">
          <mxGeometry x="60" width="100" height="40" as="geometry" />
        </mxCell>
        <mxCell id="KTmF618l_aGk8gaSjo1K-80" style="shape=partialRectangle;html=1;whiteSpace=wrap;collapsible=0;dropTarget=0;pointerEvents=0;fillColor=none;top=0;left=0;bottom=0;right=0;points=[[0,0.5],[1,0.5]];portConstraint=eastwest;" parent="KTmF618l_aGk8gaSjo1K-61" vertex="1">
          <mxGeometry y="150" width="160" height="40" as="geometry" />
        </mxCell>
        <mxCell id="KTmF618l_aGk8gaSjo1K-81" value="UNIQUE" style="shape=partialRectangle;html=1;whiteSpace=wrap;connectable=0;fillColor=none;top=0;left=0;bottom=0;right=0;overflow=hidden;" parent="KTmF618l_aGk8gaSjo1K-80" vertex="1">
          <mxGeometry width="60" height="40" as="geometry" />
        </mxCell>
        <mxCell id="KTmF618l_aGk8gaSjo1K-82" value="UNIQUE" style="shape=partialRectangle;html=1;whiteSpace=wrap;connectable=0;fillColor=none;top=0;left=0;bottom=0;right=0;overflow=hidden;" parent="KTmF618l_aGk8gaSjo1K-80" vertex="1">
          <mxGeometry x="60" width="100" height="40" as="geometry" />
        </mxCell>
        <mxCell id="KTmF618l_aGk8gaSjo1K-83" style="shape=partialRectangle;html=1;whiteSpace=wrap;collapsible=0;dropTarget=0;pointerEvents=0;fillColor=none;top=0;left=0;bottom=0;right=0;points=[[0,0.5],[1,0.5]];portConstraint=eastwest;" parent="KTmF618l_aGk8gaSjo1K-61" vertex="1">
          <mxGeometry y="190" width="160" height="40" as="geometry" />
        </mxCell>
        <mxCell id="KTmF618l_aGk8gaSjo1K-84" value="1" style="shape=partialRectangle;html=1;whiteSpace=wrap;connectable=0;fillColor=none;top=0;left=0;bottom=0;right=0;overflow=hidden;" parent="KTmF618l_aGk8gaSjo1K-83" vertex="1">
          <mxGeometry width="60" height="40" as="geometry" />
        </mxCell>
        <mxCell id="KTmF618l_aGk8gaSjo1K-85" value="Ready" style="shape=partialRectangle;html=1;whiteSpace=wrap;connectable=0;fillColor=none;top=0;left=0;bottom=0;right=0;overflow=hidden;" parent="KTmF618l_aGk8gaSjo1K-83" vertex="1">
          <mxGeometry x="60" width="100" height="40" as="geometry" />
        </mxCell>
        <mxCell id="KTmF618l_aGk8gaSjo1K-86" style="shape=partialRectangle;html=1;whiteSpace=wrap;collapsible=0;dropTarget=0;pointerEvents=0;fillColor=none;top=0;left=0;bottom=0;right=0;points=[[0,0.5],[1,0.5]];portConstraint=eastwest;" parent="KTmF618l_aGk8gaSjo1K-61" vertex="1">
          <mxGeometry y="230" width="160" height="40" as="geometry" />
        </mxCell>
        <mxCell id="KTmF618l_aGk8gaSjo1K-87" value="2" style="shape=partialRectangle;html=1;whiteSpace=wrap;connectable=0;fillColor=none;top=0;left=0;bottom=0;right=0;overflow=hidden;" parent="KTmF618l_aGk8gaSjo1K-86" vertex="1">
          <mxGeometry width="60" height="40" as="geometry" />
        </mxCell>
        <mxCell id="KTmF618l_aGk8gaSjo1K-88" value="EnRoute" style="shape=partialRectangle;html=1;whiteSpace=wrap;connectable=0;fillColor=none;top=0;left=0;bottom=0;right=0;overflow=hidden;" parent="KTmF618l_aGk8gaSjo1K-86" vertex="1">
          <mxGeometry x="60" width="100" height="40" as="geometry" />
        </mxCell>
        <mxCell id="KTmF618l_aGk8gaSjo1K-92" style="shape=partialRectangle;html=1;whiteSpace=wrap;collapsible=0;dropTarget=0;pointerEvents=0;fillColor=none;top=0;left=0;bottom=0;right=0;points=[[0,0.5],[1,0.5]];portConstraint=eastwest;" parent="KTmF618l_aGk8gaSjo1K-61" vertex="1">
          <mxGeometry y="270" width="160" height="40" as="geometry" />
        </mxCell>
        <mxCell id="KTmF618l_aGk8gaSjo1K-93" value="3" style="shape=partialRectangle;html=1;whiteSpace=wrap;connectable=0;fillColor=none;top=0;left=0;bottom=0;right=0;overflow=hidden;" parent="KTmF618l_aGk8gaSjo1K-92" vertex="1">
          <mxGeometry width="60" height="40" as="geometry" />
        </mxCell>
        <mxCell id="KTmF618l_aGk8gaSjo1K-94" value="Returning" style="shape=partialRectangle;html=1;whiteSpace=wrap;connectable=0;fillColor=none;top=0;left=0;bottom=0;right=0;overflow=hidden;" parent="KTmF618l_aGk8gaSjo1K-92" vertex="1">
          <mxGeometry x="60" width="100" height="40" as="geometry" />
        </mxCell>
        <mxCell id="KTmF618l_aGk8gaSjo1K-89" style="shape=partialRectangle;html=1;whiteSpace=wrap;collapsible=0;dropTarget=0;pointerEvents=0;fillColor=none;top=0;left=0;bottom=0;right=0;points=[[0,0.5],[1,0.5]];portConstraint=eastwest;" parent="KTmF618l_aGk8gaSjo1K-61" vertex="1">
          <mxGeometry y="310" width="160" height="40" as="geometry" />
        </mxCell>
        <mxCell id="KTmF618l_aGk8gaSjo1K-90" value="4" style="shape=partialRectangle;html=1;whiteSpace=wrap;connectable=0;fillColor=none;top=0;left=0;bottom=0;right=0;overflow=hidden;" parent="KTmF618l_aGk8gaSjo1K-89" vertex="1">
          <mxGeometry width="60" height="40" as="geometry" />
        </mxCell>
        <mxCell id="KTmF618l_aGk8gaSjo1K-91" value="Waiting" style="shape=partialRectangle;html=1;whiteSpace=wrap;connectable=0;fillColor=none;top=0;left=0;bottom=0;right=0;overflow=hidden;" parent="KTmF618l_aGk8gaSjo1K-89" vertex="1">
          <mxGeometry x="60" width="100" height="40" as="geometry" />
        </mxCell>
        <mxCell id="PNWM3lOSesutoMhy2ynW-1" style="shape=partialRectangle;html=1;whiteSpace=wrap;collapsible=0;dropTarget=0;pointerEvents=0;fillColor=none;top=0;left=0;bottom=0;right=0;points=[[0,0.5],[1,0.5]];portConstraint=eastwest;" vertex="1" parent="KTmF618l_aGk8gaSjo1K-61">
          <mxGeometry y="350" width="160" height="40" as="geometry" />
        </mxCell>
        <mxCell id="PNWM3lOSesutoMhy2ynW-2" value="5" style="shape=partialRectangle;html=1;whiteSpace=wrap;connectable=0;fillColor=none;top=0;left=0;bottom=0;right=0;overflow=hidden;" vertex="1" parent="PNWM3lOSesutoMhy2ynW-1">
          <mxGeometry width="60" height="40" as="geometry" />
        </mxCell>
        <mxCell id="PNWM3lOSesutoMhy2ynW-3" value="Logged Out" style="shape=partialRectangle;html=1;whiteSpace=wrap;connectable=0;fillColor=none;top=0;left=0;bottom=0;right=0;overflow=hidden;" vertex="1" parent="PNWM3lOSesutoMhy2ynW-1">
          <mxGeometry x="60" width="100" height="40" as="geometry" />
        </mxCell>
        <mxCell id="KTmF618l_aGk8gaSjo1K-112" style="edgeStyle=orthogonalEdgeStyle;rounded=0;orthogonalLoop=1;jettySize=auto;html=1;exitX=1;exitY=0.5;exitDx=0;exitDy=0;" parent="1" source="KTmF618l_aGk8gaSjo1K-10" target="KTmF618l_aGk8gaSjo1K-23" edge="1">
          <mxGeometry relative="1" as="geometry" />
        </mxCell>
        <mxCell id="KTmF618l_aGk8gaSjo1K-113" style="edgeStyle=orthogonalEdgeStyle;rounded=0;orthogonalLoop=1;jettySize=auto;html=1;exitX=0;exitY=0.5;exitDx=0;exitDy=0;entryX=1;entryY=0.5;entryDx=0;entryDy=0;" parent="1" source="KTmF618l_aGk8gaSjo1K-66" target="KTmF618l_aGk8gaSjo1K-47" edge="1">
          <mxGeometry relative="1" as="geometry" />
        </mxCell>
        <mxCell id="KTmF618l_aGk8gaSjo1K-115" style="edgeStyle=orthogonalEdgeStyle;rounded=0;orthogonalLoop=1;jettySize=auto;html=1;exitX=0;exitY=0.5;exitDx=0;exitDy=0;entryX=0.286;entryY=-0.017;entryDx=0;entryDy=0;entryPerimeter=0;" parent="1" source="KTmF618l_aGk8gaSjo1K-100" target="KTmF618l_aGk8gaSjo1K-42" edge="1">
          <mxGeometry relative="1" as="geometry" />
        </mxCell>
      </root>
    </mxGraphModel>
  </diagram>
</mxfile>
